<?xml version="1.0" encoding="UTF-8"?>
<svg width="16px" height="16px" viewBox="0 0 16 16" version="1.1" xmlns="http://www.w3.org/2000/svg" xmlns:xlink="http://www.w3.org/1999/xlink">
    <!-- Generator: Sketch 50.2 (55047) - http://www.bohemiancoding.com/sketch -->
    <title>fb_shape</title>
    <desc>Created with Sketch.</desc>
    <defs></defs>
    <g id="Symbols" stroke="none" stroke-width="1" fill="none" fill-rule="evenodd">
        <g id="footer" transform="translate(-693.000000, -169.000000)" fill="#606264">
            <path d="M708,169 L693.9,169 C693.3,169 693,169.3 693,169.9 L693,184.2 C693,184.7 693.3,185 693.9,185 L701.5,185 L701.5,178.8 L699.5,178.8 L699.5,176.4 L701.5,176.4 L701.5,174.6 C701.5,172.5 702.7,171.4 704.6,171.4 C705.5,171.4 706.2,171.5 706.4,171.5 L706.4,173.7 L705.2,173.7 C704.2,173.7 704.1,174.2 704.1,174.8 L704.1,176.3 L706.5,176.3 L706,178.7 L704,178.7 L704,185 L708.1,185 C708.6,185 709,184.7 709,184.1 L709,169.9 C708.9,169.3 708.5,169 708,169 L708,169 L708,169 Z" id="fb_shape"></path>
        </g>
    </g>
</svg>