<?xml version="1.0" encoding="UTF-8"?>
<svg width="12px" height="13px" viewBox="0 0 12 13" version="1.1" xmlns="http://www.w3.org/2000/svg" xmlns:xlink="http://www.w3.org/1999/xlink">
    <!-- Generator: Sketch 50.2 (55047) - http://www.bohemiancoding.com/sketch -->
    <title>icon-website</title>
    <desc>Created with Sketch.</desc>
    <defs></defs>
    <g id="icon-website" stroke="none" stroke-width="1" fill="none" fill-rule="evenodd">
        <path d="M6.21233011,8.84496556 C6.46438872,8.59290696 6.85855876,8.59290696 7.08034511,8.83024988 C7.33240371,9.08230848 7.33240371,9.47647853 7.08034511,9.72853713 L5.69244611,11.1164361 C5.10865399,11.6993873 4.33587048,12.0147234 3.51641724,12.0147234 C2.69591288,12.0147234 1.92312937,11.6993873 1.34017815,11.1164361 L0.898287252,10.6745452 C0.315336035,10.0907531 0,9.33436709 0,8.49851637 C0,7.66245543 0.315336035,6.88967192 0.898287252,6.3067207 L2.75919031,4.46242534 C3.95725702,3.26414841 5.92810724,3.26414841 7.12617394,4.46242534 L7.78816939,5.12421057 C8.040228,5.37626917 8.040228,5.77043922 7.78816939,6.02249782 C7.53611079,6.27476665 7.14194075,6.27476665 6.88967192,6.02249782 L6.22788669,5.3607126 C5.51838061,4.65120652 4.35142706,4.65120652 3.64192098,5.3607126 L1.79762562,7.20584885 C1.45012531,7.55250826 1.26134414,8.00995574 1.26134414,8.49851637 C1.26134414,8.987077 1.45012531,9.44452447 1.79762562,9.79097366 L2.2393063,10.2328646 C2.58596571,10.5801546 3.04341319,10.769146 3.53197382,10.769146 C4.02053445,10.769146 4.47798192,10.5793138 4.82443111,10.2328646 L6.21233011,8.84496556 Z M10.6737043,0.898287252 L11.1008796,1.3712913 C11.6838308,1.95529364 11.9991668,2.72807715 11.9991668,3.54753039 C11.9991668,4.36782453 11.6838308,5.14060804 11.1008796,5.72376948 L9.492876,7.33156282 C8.90908389,7.91451403 8.13630038,8.22985007 7.31684713,8.22985007 C6.49634277,8.22985007 5.72376948,7.91451403 5.14060804,7.33156282 L4.47882282,6.66977759 C4.22655399,6.41750876 4.22655399,6.02333872 4.47882282,5.77128011 C4.73088142,5.51922151 5.12505147,5.51922151 5.37711007,5.77128011 L6.03910552,6.43327556 C6.38555471,6.78056565 6.84300219,6.96934682 7.33156282,6.96934682 C7.82012345,6.96934682 8.27757092,6.77972475 8.62402011,6.43327556 L10.2475802,4.82359022 C10.5948703,4.47714103 10.7838617,4.01969355 10.7838617,3.53113292 C10.7838617,3.04257229 10.5942397,2.58512482 10.2475802,2.2384654 L9.80589957,1.79678473 C9.45924016,1.44949464 9.00179268,1.26050324 8.51323205,1.26050324 C8.02467142,1.26050324 7.56722395,1.45012531 7.22077476,1.79678473 L6.0538212,2.96373828 C5.8017626,3.21579689 5.40759255,3.21579689 5.15532373,2.96373828 C4.90326512,2.71146945 4.90326512,2.31729941 5.15532373,2.06524081 L6.32227728,0.898287252 C6.90627962,0.315336035 7.6788529,0 8.49851637,0 C9.31796961,0 10.0907531,0.315336035 10.6737043,0.898287252 Z" id="shape" stroke="#27282B" stroke-width="0.25" fill="#27282B"></path>
    </g>
</svg>