<?xml version="1.0" encoding="UTF-8"?>
<svg width="14px" height="14px" viewBox="0 0 14 14" version="1.1" xmlns="http://www.w3.org/2000/svg" xmlns:xlink="http://www.w3.org/1999/xlink">
    <!-- Generator: Sketch 50.2 (55047) - http://www.bohemiancoding.com/sketch -->
    <title>icon-calendar</title>
    <desc>Created with Sketch.</desc>
    <defs></defs>
    <g id="icon-calendar" stroke="none" stroke-width="1" fill="none" fill-rule="evenodd">
        <path d="M12.4334695,1.33315156 L11.000061,1.33315156 L11.000061,0.666362475 C11.000061,0.299905774 10.7001097,0 10.3333841,0 C9.96665854,0 9.6667073,0.299905774 9.6667073,0.666362475 L9.6667073,1.33315156 L4.3332927,1.33315156 L4.3332927,0.666362475 C4.3332927,0.299905774 4.03334146,0 3.66661587,0 C3.29989028,0 2.99993905,0.299905774 2.99993905,0.666362475 L2.99993905,1.33315156 L1.56653054,1.33315156 C0.699957333,1.33315156 0,1.99951403 0,2.8661692 L0,13.1647117 C0.0332805071,13.6646968 0.499847617,14.0313668 0.99990857,13.9978781 L13.0000914,13.9978781 C13.5001524,14.0313668 13.9667195,13.6646968 14,13.1314362 L14,2.8661692 C14,1.99951403 13.3000427,1.33315156 12.4334695,1.33315156 L12.4334695,1.33315156 Z M10.1334877,8.4986812 L6.5999939,11.8315601 C6.33332317,12.0649149 5.93331708,12.0649149 5.66664635,11.8315601 L3.86651225,9.99842338 C3.59984152,9.73179307 3.59984152,9.29857214 3.86651225,9.06543059 C4.13318298,8.83207575 4.56668292,8.79880028 4.80007314,9.06543059 L6.1334268,10.4318576 L9.19992686,7.56547511 C9.50009143,7.36560903 9.90009753,7.43215996 10.1334877,7.69879027 C10.3333841,7.89886965 10.3333841,8.23205089 10.1334877,8.4986812 L10.1334877,8.4986812 Z M1.33335365,2.8661692 C1.33335365,2.73285404 1.46647568,2.66630312 1.56653054,2.66630312 L2.99993905,2.66630312 L2.99993905,3.33266559 C2.99993905,3.6993356 3.29989028,3.99945467 3.66661587,3.99945467 C4.03334146,3.99945467 4.3332927,3.6993356 4.3332927,3.33266559 L4.3332927,2.66630312 L9.6667073,2.66630312 L9.6667073,3.33266559 C9.6667073,3.6993356 9.96665854,3.99945467 10.3333841,3.99945467 C10.7001097,3.99945467 11.000061,3.6993356 11.000061,3.33266559 L11.000061,2.66630312 L12.4334695,2.66630312 C12.5668048,2.66630312 12.6666463,2.73285404 12.6666463,2.8661692 L12.6666463,5.33260623 L1.33335365,5.33260623 L1.33335365,2.8661692 Z" id="shape" fill="#27282B"></path>
    </g>
</svg>