<?xml version="1.0" encoding="UTF-8"?>
<svg width="17px" height="14px" viewBox="0 0 17 14" version="1.1" xmlns="http://www.w3.org/2000/svg" xmlns:xlink="http://www.w3.org/1999/xlink">
    <!-- Generator: Sketch 50.2 (55047) - http://www.bohemiancoding.com/sketch -->
    <title>icon-work</title>
    <desc>Created with Sketch.</desc>
    <defs></defs>
    <g id="icon-work" stroke="none" stroke-width="1" fill="none" fill-rule="evenodd">
        <path d="M15.8666373,6.65023514 L15.4855561,11.6615752 C15.416411,12.5662793 14.6629758,13.2655621 13.7558102,13.2655621 L2.2786219,13.2655621 C1.37145634,13.2655621 0.617126024,12.5662793 0.548876026,11.6615752 L0.167794884,6.65023514 C2.00248912,7.38353103 3.86515466,7.84785479 6.30313413,7.99643839 C6.5103456,8.74897855 7.19911116,9.30146788 8.01721607,9.30146788 C8.83532097,9.30146788 9.52498162,8.74808346 9.73129801,7.99643839 C12.1692775,7.84785479 14.031943,7.38353103 15.8666373,6.65023514 Z M16.0293184,4.51210812 L15.9532364,5.51750893 C15.9033356,5.54010975 15.8518684,5.56203925 15.8010725,5.58374499 C14.0250061,6.34792121 12.1683824,6.83305563 9.71384391,6.98589087 C9.48649309,6.26557367 8.81361524,5.74463597 8.01811115,5.74463597 C7.22260706,5.74463597 6.54950544,6.26646875 6.32237839,6.98589087 C3.86694482,6.83372694 2.009426,6.3494876 0.233359637,5.58553515 C0.182563736,5.56293434 0.131096524,5.54100483 0.0811957053,5.51907532 L0.00511373937,4.51389829 C-0.0716395381,3.50603601 0.725430941,2.6469811 1.73508338,2.6469811 L14.2984537,2.6469811 C15.3090012,2.64608602 16.1060717,3.50514093 16.0293184,4.51210812 Z M9.00941441,7.52338758 C9.00941441,8.84609494 7.02501772,8.84609494 7.02501772,7.52338758 C7.02501772,6.200904 9.00941441,6.200904 9.00941441,7.52338758 Z M11.1638767,2.11798767 L10.195398,2.11798767 L10.195398,1.81567374 C10.195398,1.3488885 9.81521194,0.968702443 9.3484267,0.968702443 L6.68600543,0.968702443 C6.2192202,0.968702443 5.83903414,1.3488885 5.83903414,1.81567374 L5.83903414,2.11798767 L4.87055546,2.11798767 L4.87055546,1.81567374 C4.87055546,0.814748347 5.68508004,0 6.68600543,0 L9.3484267,0 C10.3493521,0 11.1638767,0.814748347 11.1638767,1.81567374 L11.1638767,2.11798767 Z" id="shape" fill="#27282B"></path>
    </g>
</svg>