<?xml version="1.0" encoding="UTF-8"?>
<svg width="10px" height="9px" viewBox="0 0 10 9" version="1.1" xmlns="http://www.w3.org/2000/svg" xmlns:xlink="http://www.w3.org/1999/xlink">
    <!-- Generator: Sketch 50.2 (55047) - http://www.bohemiancoding.com/sketch -->
    <title>icon-behance-like</title>
    <desc>Created with Sketch.</desc>
    <defs></defs>
    <g id="icon-behance-like" stroke="none" stroke-width="1" fill="none" fill-rule="evenodd">
        <path d="M6.35746144,0.0163098894 C6.27012864,0.00780994095 6.21679563,0.00847660357 6.16729593,0.0163098894 C6.11779623,0.0241431752 6.0722965,0.0494763549 6.03129675,0.0703095619 C5.70696539,0.24147519 5.63929913,0.801471794 5.52863314,1.18430281 C5.22913495,2.22729648 4.39514001,3.19212396 3.35547965,3.45245572 C3.10414784,3.46362231 2.85998265,3.46362231 2.60798418,3.4661223 L2.60798418,3.27612345 C2.60798418,3.14579091 2.51098477,3.05862477 2.39065217,3.05862477 L0,3.05862477 L0,8.2747598 L2.39065217,8.2747598 C2.51031811,8.2747598 2.60798418,8.14442726 2.60798418,8.05726112 L2.60798418,3.94145275 C2.75264997,3.93945276 2.89848242,3.9329528 3.04298154,3.92778617 L3.04298154,7.83976244 C3.16398081,7.84309575 3.28831339,7.8345958 3.40947932,7.83976244 C4.05914205,7.97009498 4.53780581,8.54092485 5.20246845,8.62759099 C5.94529727,8.75775687 6.69462606,8.66525743 7.44395485,8.70892383 C7.98961821,8.66525743 8.6607808,8.75259024 9.04677846,8.27409314 C9.21211079,7.88276218 9.06511169,7.36126534 9.56310867,7.18743306 C10.0102726,6.88343491 9.46277594,6.31510502 9.68544126,5.92444072 C9.97193952,5.62044257 10.1536051,5.14444545 9.8216071,4.79694756 C9.40677628,4.4056166 9.96993953,3.80278692 9.49544241,3.41145596 C9.42110953,3.33912307 9.33711004,3.29945664 9.25061056,3.26179021 C9.16461108,3.22462376 9.07294497,3.19462395 8.97911221,3.1802907 C8.9699456,3.17912404 8.96094565,3.16795744 8.95177904,3.16662412 C8.85211298,3.1477909 8.7544469,3.13929095 8.6666141,3.13929095 C8.25061663,3.10879113 7.83328582,3.11595776 7.41662168,3.12562436 C7.24612272,3.11979107 7.07029045,3.11595776 6.90029148,3.0982912 C6.56896016,2.83729278 6.97912434,2.35946234 6.9681244,2.01179779 C7.02862404,1.53380069 7.07095711,1.02013713 6.94079124,0.585306438 C6.869125,0.376307706 6.72912585,0.142642457 6.51946046,0.0553096529 C6.49929391,0.0423097317 6.48429401,0.0371430964 6.46546079,0.0279764853 C6.4459609,0.0189765399 6.42829435,0.00530995611 6.41146111,0.00064331775 C6.38796126,-0.00318999233 6.37496134,0.0111432541 6.35746144,0.0163098894 Z" id="shape" fill="#FFFFFF"></path>
    </g>
</svg>