<?xml version="1.0" encoding="UTF-8"?>
<svg width="12px" height="13px" viewBox="0 0 12 13" version="1.1" xmlns="http://www.w3.org/2000/svg" xmlns:xlink="http://www.w3.org/1999/xlink">
    <!-- Generator: Sketch 50.2 (55047) - http://www.bohemiancoding.com/sketch -->
    <title>icon-location</title>
    <desc>Created with Sketch.</desc>
    <defs></defs>
    <g id="icon-location" stroke="none" stroke-width="1" fill="none" fill-rule="evenodd">
        <path d="M5.81119196,13 C5.6103068,13 5.5008439,12.9639187 4.93305078,12.4514665 C4.67706849,12.2135249 4.25701373,11.8115108 3.762846,11.2810179 C2.94004576,10.3850799 1.80665366,8.95938039 1.03821919,7.31377991 L1.03821919,7.29573925 C0.763952442,6.63774285 0.599148601,5.86906459 0.599148601,5.21106819 C0.599148601,2.34089716 2.94004576,0 5.81021679,0 C8.68063161,0 11.021285,2.34089716 11.021285,5.21106819 C11.021285,5.86906459 10.8564811,6.63774285 10.5822144,7.29573925 L10.5822144,7.31377991 C9.81475508,8.97742105 8.68063161,10.3860551 7.85783137,11.2810179 C7.36439502,11.8295514 6.94360888,12.2135249 6.68738279,12.4514665 C6.12154002,12.9639187 6.01207711,13 5.81119196,13 L5.81119196,13 Z M2.0448391,6.85666867 C3.14190608,9.21560648 5.07981397,11.1354737 5.81119196,11.7754295 C6.54256995,11.1354737 8.48047783,9.23364714 9.57754482,6.85666867 C9.74234866,6.45489836 9.92519316,5.79568299 9.92519316,5.19302753 C9.92519316,2.92551196 8.07870752,1.07902633 5.81119196,1.07902633 C3.54367639,1.07902633 1.69719076,2.92551196 1.69719076,5.19302753 C1.69719076,5.79568299 1.8619946,6.43563874 2.0448391,6.85666867 L2.0448391,6.85666867 Z M5.81119196,7.3871615 C4.58662141,7.3871615 3.59901733,6.39955742 3.59901733,5.17498687 C3.59901733,3.95017253 4.58662141,2.96256845 5.81119196,2.96256845 C7.03576251,2.96256845 8.02336659,3.95017253 8.02336659,5.17498687 C8.02336659,6.39955742 7.03576251,7.3871615 5.81119196,7.3871615 L5.81119196,7.3871615 Z M5.81119196,4.05866027 C5.18927687,4.05866027 4.69608431,4.55209662 4.69608431,5.1740117 C4.69608431,5.79568299 5.18927687,6.28911935 5.81119196,6.28911935 C6.43310704,6.28911935 6.9262996,5.79568299 6.9262996,5.1740117 C6.9262996,4.55209662 6.43310704,4.05866027 5.81119196,4.05866027 L5.81119196,4.05866027 Z" id="shape" stroke="#27282B" stroke-width="0.35" fill="#27282B"></path>
    </g>
</svg>