<?xml version="1.0" encoding="UTF-8"?>
<svg width="13px" height="8px" viewBox="0 0 13 8" version="1.1" xmlns="http://www.w3.org/2000/svg" xmlns:xlink="http://www.w3.org/1999/xlink">
    <!-- Generator: Sketch 50.2 (55047) - http://www.bohemiancoding.com/sketch -->
    <title>icon-behance-views</title>
    <desc>Created with Sketch.</desc>
    <defs></defs>
    <g id="icon-behance-views" stroke="none" stroke-width="1" fill="none" fill-rule="evenodd">
        <path d="M6.43723867,0 C2.39730352,0 2.27373675e-13,4 2.27373675e-13,4 C2.27373675e-13,4 2.39730352,8 6.43723867,8 C10.3971329,8 12.7997269,4 12.7997269,4 C12.7997269,4 10.3971329,0 6.43723867,0 L6.43723867,0 Z M6.39986347,1.2001024 C7.95989419,1.2001024 9.19976107,2.43996928 9.19976107,4 C9.19976107,5.56003072 7.95989419,6.7998976 6.39986347,6.7998976 C4.83983275,6.7998976 3.59996587,5.56003072 3.59996587,4 C3.59996587,2.43996928 4.83983275,1.2001024 6.39986347,1.2001024 L6.39986347,1.2001024 Z M6.39986347,2.40003413 C5.51992491,2.40003413 4.7998976,3.12006144 4.7998976,4 C4.7998976,4.87993856 5.51992491,5.59996587 6.39986347,5.59996587 C7.27980203,5.59996587 7.99982934,4.87993856 7.99982934,4 C7.99982934,3.76004779 7.95443297,3.56276133 7.87456268,3.36274426 C7.75458657,3.52265552 7.59911255,3.59996587 7.39909549,3.59996587 C7.07910231,3.59996587 6.79921495,3.3200785 6.79921495,3.00008533 C6.79921495,2.80006827 6.8765253,2.64476491 7.03643656,2.52461814 C6.83659015,2.44474785 6.63913303,2.39935148 6.39918082,2.39935148 L6.39986347,2.40003413 Z" id="shape" fill="#FFFFFF"></path>
    </g>
</svg>