<?xml version="1.0" encoding="UTF-8"?>
<svg width="20px" height="12px" viewBox="0 0 20 12" version="1.1" xmlns="http://www.w3.org/2000/svg" xmlns:xlink="http://www.w3.org/1999/xlink">
    <!-- Generator: Sketch 50.2 (55047) - http://www.bohemiancoding.com/sketch -->
    <title>icon-more-arrow</title>
    <desc>Created with Sketch.</desc>
    <defs></defs>
    <g id="icon-more-arrow" stroke="none" stroke-width="1" fill="none" fill-rule="evenodd">
        <path d="M18.2500289,6.4188149 L13.6673222,11.0015216 C13.5630322,11.1058116 13.5117771,11.242136 13.5117771,11.3784604 C13.5117771,11.5144289 13.5630322,11.652177 13.6673222,11.7550432 C13.8759021,11.9636231 14.2140435,11.9636231 14.4226234,11.7550432 L19.8435651,6.33552532 C20.052145,6.12694543 20.052145,5.78880396 19.8435651,5.58058 L14.4211997,0.156434921 C14.2126198,-0.0521449737 13.8744783,-0.0521449737 13.6662544,0.156434921 C13.4576745,0.365014816 13.4576745,0.702800345 13.6662544,0.91138024 L18.1055179,5.35099974 L0.533907581,5.35099974 C0.239190596,5.35099974 2.27373675e-13,5.59019034 2.27373675e-13,5.88490732 C2.27373675e-13,6.17962431 0.239190596,6.4188149 0.533907581,6.4188149 L18.2500289,6.4188149 Z" id="shape" stroke="#27282B" stroke-width="0.25" fill="#27282B"></path>
    </g>
</svg>