<?xml version="1.0" encoding="UTF-8"?>
<svg width="16px" height="14px" viewBox="0 0 16 14" version="1.1" xmlns="http://www.w3.org/2000/svg" xmlns:xlink="http://www.w3.org/1999/xlink">
    <!-- Generator: Sketch 50.2 (55047) - http://www.bohemiancoding.com/sketch -->
    <title>icon-chat</title>
    <desc>Created with Sketch.</desc>
    <defs></defs>
    <g id="icon-chat" stroke="none" stroke-width="1" fill="none" fill-rule="evenodd">
        <path d="M1.76789031,11.1816626 L1.76789031,13.1644935 C1.76789031,13.3804944 1.86282468,13.6291227 2.05143324,13.7839991 C2.2089571,13.9388754 2.42907043,14 2.65044395,14 C2.87055728,14 3.0919308,13.9066612 3.24945466,13.7517848 L5.83200573,11.2122249 L13.613264,11.2122249 C14.8734549,11.2122249 15.8807674,10.221842 15.8807674,8.98283085 L15.8807674,2.22939406 C15.8807674,0.990382913 14.8734549,0 13.613264,0 L2.27154657,0 C1.01135574,0 0.00362314466,0.990382913 0.00362314466,2.22939406 L0.00362314466,8.98283085 C-0.060226524,10.0669656 0.727392744,10.9656617 1.76789031,11.1816626 L1.76789031,11.1816626 Z M2.23878161,1.54876394 L13.5804991,1.54876394 C13.9577162,1.54876394 14.2727639,1.85851673 14.2727639,2.22939406 L14.2727639,8.98283085 C14.2727639,9.35370818 13.9577162,9.66346097 13.5804991,9.66346097 L5.13638039,9.66346097 L3.34144859,11.4286389 L3.34144859,9.66346097 L2.20727684,9.66346097 C1.83005972,9.66346097 1.51501201,9.35370818 1.51501201,8.98283085 L1.51501201,2.22939406 C1.54609672,1.85851673 1.86114443,1.54876394 2.23878161,1.54876394 Z" id="shape" fill="#FFFFFF"></path>
    </g>
</svg>