<?xml version="1.0" encoding="UTF-8"?>
<svg width="18px" height="14px" viewBox="0 0 18 14" version="1.1" xmlns="http://www.w3.org/2000/svg" xmlns:xlink="http://www.w3.org/1999/xlink">
    <!-- Generator: Sketch 50.2 (55047) - http://www.bohemiancoding.com/sketch -->
    <title>icon-twitter</title>
    <desc>Created with Sketch.</desc>
    <defs></defs>
    <g id="icon-twitter" stroke="none" stroke-width="1" fill="none" fill-rule="evenodd">
        <path d="M17.15,1.575 C16.625,1.925 15.8375,2.1 15.225,2.1 C16.0125,1.6625 16.5375,1.05 16.7125,0.175 C16.1,0.6125 15.3125,0.7875 14.4375,1.05 C13.825,0.4375 12.95,0 11.8125,0 C9.8875,0 8.4,1.575 8.4,3.5875 C8.4,3.9375 8.4,4.1125 8.4875,4.375 C5.5125,4.2875 2.8875,2.8875 1.1375,0.7 C0.7875,1.225 0.7,1.75 0.7,2.45 C0.7,3.675 1.3125,4.725 2.275,5.3375 C1.75,5.3375 1.225,5.1625 0.7,4.9 L0.7,4.9 C0.7,6.65 1.925,8.05 3.5,8.3125 C3.15,8.4875 2.8875,8.4875 2.5375,8.4875 C2.3625,8.4875 2.1,8.4875 1.925,8.4 C2.3625,9.8 3.675,10.7625 5.25,10.85 C4.025,11.8125 2.5375,12.3375 0.875,12.3375 L0,12.3375 C1.4875,13.3 3.4125,13.9125 5.425,13.9125 C11.9,13.9125 15.4,8.4875 15.4,3.9375 L15.4,3.5 C16.0125,2.975 16.7125,2.3625 17.15,1.575 L17.15,1.575 Z" id="shape" fill="#27282B"></path>
    </g>
</svg>