<?xml version="1.0" encoding="UTF-8"?>
<svg width="119px" height="38px" viewBox="0 0 119 38" version="1.1" xmlns="http://www.w3.org/2000/svg" xmlns:xlink="http://www.w3.org/1999/xlink">
    <!-- Generator: Sketch 50.2 (55047) - http://www.bohemiancoding.com/sketch -->
    <title>linkedin-logo</title>
    <desc>Created with Sketch.</desc>
    <defs></defs>
    <g id="Symbols" stroke="none" stroke-width="1" fill="none" fill-rule="evenodd">
        <g id="header" transform="translate(-664.000000, -21.000000)">
            <g id="linkedin-logo" transform="translate(664.000000, 21.000000)">
                <circle id="shape" fill="#F2A447" cx="100" cy="19" r="19"></circle>
                <path d="M96.1054688,9.67578125 C95.09375,9.72771013 93.4257812,9.75367457 91.8671875,9.75367457 C90.0761719,9.75367457 88.3945312,9.72771013 87.4511719,9.67578125 L87.4511719,10.2080523 C89.2148438,10.2859456 89.5429688,10.5585722 89.5429688,12.492923 L89.5429688,25.6828583 C89.5429688,27.6172091 89.2285156,27.8898357 87.4511719,27.967729 L87.4511719,28.5 C88.3945312,28.4480711 90.0761719,28.4221067 91.8671875,28.4221067 C93.4257812,28.4221067 95.09375,28.4480711 96.1054688,28.5 L96.1054688,27.967729 C94.328125,27.8898357 94,27.6172091 94,25.6828583 L94,12.492923 C94,10.5585722 94.3144531,10.2859456 96.1054688,10.2080523 L96.1054688,9.67578125 Z" id="shape" stroke="#1F2021" stroke-width="1.25" fill="#1F2021"></path>
                <path d="M107.609375,14.625 C105.640625,14.625 103.972656,15.2881434 103.042969,17.0607767 L103.042969,14.7015165 C101.867188,14.9565717 100.513672,15.0713465 98.9550781,15.0713465 C98.3945312,15.0713465 97.8066406,15.0330882 97.21875,14.9820772 L97.21875,15.5304458 C98.5722656,15.5304458 99.0097656,16.2701057 99.0097656,17.8386949 L99.0097656,26.0769761 C99.0097656,27.5307904 98.5175781,27.9516314 97.21875,27.9516314 L97.21875,28.5 C97.9570312,28.4744945 99.6386719,28.3979779 101.074219,28.3979779 C102.441406,28.3979779 103.890625,28.4744945 104.546875,28.5 L104.546875,27.9516314 C103.439453,27.9516314 103.042969,27.5307904 103.042969,26.0769761 L103.042969,18.7951517 C103.042969,17.0735294 104.246094,15.7727482 105.818359,15.7727482 C107.212891,15.7727482 107.541016,16.6526884 107.541016,17.9534697 L107.541016,26.0769761 C107.541016,27.5307904 107.144531,27.9516314 106.037109,27.9516314 L106.037109,28.5 C106.720703,28.4744945 108.238281,28.3979779 109.673828,28.3979779 C111.041016,28.3979779 112.654297,28.4744945 113.365234,28.5 L113.365234,27.9516314 C112.066406,27.9516314 111.574219,27.5307904 111.574219,26.0769761 L111.574219,19.037454 C111.574219,17.2648208 111.314453,16.308364 110.699219,15.6452206 C110.125,15.0330882 109.208984,14.625 107.609375,14.625 L107.609375,14.625 Z" id="shape" stroke="#1F2021" stroke-width="1.25" fill="#1F2021"></path>
                <path d="M9.04101562,9.17578125 C8.00195312,9.23046875 6.265625,9.2578125 4.63867188,9.2578125 C2.84765625,9.2578125 1.16601562,9.23046875 0.22265625,9.17578125 L0.22265625,9.73632812 C1.98632812,9.81835938 2.31445312,10.1054688 2.31445312,12.1425781 L2.31445312,26.0332031 C2.31445312,28.0703125 2,28.3574219 0.22265625,28.4394531 L0.22265625,29 C3.27148438,28.9179688 7.46875,28.9179688 9.34179688,28.9179688 C11.2285156,28.9179688 13.8535156,28.9179688 15.7539062,29 C15.5898438,27.25 15.5625,25.4453125 15.5625,24.5703125 C15.5625,23.6132812 15.5898438,22.7519531 15.6445312,22.109375 L15.0019531,22.109375 C14.4550781,25.8417969 12.4863281,28.3574219 9.90234375,28.3574219 L8.53515625,28.3574219 C7.05859375,28.3574219 6.77148438,28.1113281 6.77148438,26.3613281 L6.77148438,12.1425781 C6.77148438,10.1054688 7.140625,9.81835938 9.04101562,9.73632812 L9.04101562,9.17578125 Z M20.1894531,7.2890625 C18.6171875,7.2890625 17.6328125,8.109375 17.6328125,9.44921875 C17.6328125,10.8027344 18.6171875,11.6230469 20.1894531,11.6230469 C21.734375,11.6230469 22.7324219,10.8027344 22.7324219,9.44921875 C22.7324219,8.109375 21.734375,7.2890625 20.1894531,7.2890625 L20.1894531,7.2890625 Z M22.390625,14.2070312 C21.2148438,14.4804688 19.8613281,14.6035156 18.3027344,14.6035156 C17.7421875,14.6035156 17.1542969,14.5625 16.5664062,14.5078125 L16.5664062,15.0957031 C17.9199219,15.0957031 18.3574219,15.8886719 18.3574219,17.5703125 L18.3574219,26.4023438 C18.3574219,27.9609375 17.8652344,28.4121094 16.5664062,28.4121094 L16.5664062,29 C17.3046875,28.9726562 18.9863281,28.890625 20.4355469,28.890625 C21.8984375,28.890625 23.4707031,28.9726562 24.1816406,29 L24.1816406,28.4121094 C22.8691406,28.4121094 22.390625,27.9609375 22.390625,26.4023438 L22.390625,14.2070312 Z M35.2890625,14.125 C33.3203125,14.125 31.6523438,14.8359375 30.7226562,16.7363281 L30.7226562,14.2070312 C29.546875,14.4804688 28.1933594,14.6035156 26.6347656,14.6035156 C26.0742188,14.6035156 25.4863281,14.5625 24.8984375,14.5078125 L24.8984375,15.0957031 C26.2519531,15.0957031 26.6894531,15.8886719 26.6894531,17.5703125 L26.6894531,26.4023438 C26.6894531,27.9609375 26.1972656,28.4121094 24.8984375,28.4121094 L24.8984375,29 C25.6367188,28.9726562 27.3183594,28.890625 28.7539062,28.890625 C30.1210938,28.890625 31.5703125,28.9726562 32.2265625,29 L32.2265625,28.4121094 C31.1191406,28.4121094 30.7226562,27.9609375 30.7226562,26.4023438 L30.7226562,18.5957031 C30.7226562,16.75 31.9257812,15.3554688 33.4980469,15.3554688 C34.8925781,15.3554688 35.2207031,16.2988281 35.2207031,17.6933594 L35.2207031,26.4023438 C35.2207031,27.9609375 34.8242188,28.4121094 33.7167969,28.4121094 L33.7167969,29 C34.4003906,28.9726562 35.9179688,28.890625 37.3535156,28.890625 C38.7207031,28.890625 40.3339844,28.9726562 41.0449219,29 L41.0449219,28.4121094 C39.7460938,28.4121094 39.2539062,27.9609375 39.2539062,26.4023438 L39.2539062,18.8554688 C39.2539062,16.9550781 38.9941406,15.9296875 38.3789062,15.21875 C37.8046875,14.5625 36.8886719,14.125 35.2890625,14.125 L35.2890625,14.125 Z M51.0859375,19.1152344 L52.890625,17.2421875 C54.0527344,16.0800781 55.2148438,15.328125 56.390625,15.0683594 L56.390625,14.5078125 C55.734375,14.5625 54.1757812,14.6035156 53.109375,14.6035156 C52.2480469,14.6035156 50.8671875,14.5625 49.828125,14.5078125 L49.828125,15.0683594 C51.0722656,15.1367188 52.0019531,15.6835938 52.0019531,16.5585938 C52.0019531,17.0371094 51.7148438,17.6113281 51.0585938,18.2539062 L48.9394531,20.3320312 C48.4746094,20.796875 47.9550781,20.9746094 47.2441406,21.0292969 L47.2441406,7.08398438 C46.0820312,7.35742188 44.7285156,7.46679688 43.15625,7.46679688 C42.609375,7.46679688 42.0214844,7.43945312 41.4335938,7.38476562 L41.4335938,7.97265625 C42.7871094,7.97265625 43.2246094,8.765625 43.2246094,10.4472656 L43.2246094,26.4023438 C43.2246094,27.9609375 42.7324219,28.4121094 41.4335938,28.4121094 L41.4335938,29 C42.171875,28.9726562 43.8398438,28.890625 45.3027344,28.890625 C46.7109375,28.890625 48.2421875,28.9726562 48.9257812,29 L48.9257812,28.4121094 C47.7089844,28.4121094 47.2441406,27.9609375 47.2441406,26.4023438 L47.2441406,21.5898438 C47.859375,21.6171875 48.2285156,21.7949219 48.625,22.4511719 L51.4003906,27.4550781 C51.4824219,27.6191406 51.5371094,27.7558594 51.5371094,27.8925781 C51.5371094,28.2070312 51.2363281,28.4121094 50.6894531,28.4121094 L50.6894531,29 C51.3867188,28.9726562 52.9316406,28.890625 54.3125,28.890625 C55.4199219,28.890625 56.6914062,28.9726562 57.2519531,29 L57.2519531,28.4121094 C56.5957031,28.1933594 56.2265625,27.6328125 55.7890625,26.9492188 L51.0859375,19.1152344 Z M65.0644531,27.0859375 C63.2871094,27.0859375 61.4140625,25.5683594 61.4140625,21.671875 C61.4140625,21.2207031 61.4277344,20.7558594 61.46875,20.3457031 L69.3027344,20.3457031 C69.3027344,15.9570312 67.3066406,14.125 64.0390625,14.125 C60.0605469,14.125 57.1894531,16.7089844 57.1894531,21.9042969 C57.1894531,27.0175781 59.8691406,29.3964844 63.6425781,29.3964844 C66.7460938,29.3964844 68.578125,27.140625 69.2480469,25.0351562 L68.7421875,24.84375 C67.6074219,26.703125 66.1855469,27.0859375 65.0644531,27.0859375 L65.0644531,27.0859375 Z M63.875,14.7265625 C65.2421875,14.7265625 65.8300781,17.078125 65.7753906,19.8125 L61.3867188,19.8125 C61.6191406,16.1894531 62.6171875,14.7265625 63.875,14.7265625 L63.875,14.7265625 Z M84.2109375,7.08398438 C83.0488281,7.35742188 81.6953125,7.46679688 80.1230469,7.46679688 C79.5625,7.46679688 78.9746094,7.43945312 78.3867188,7.38476562 L78.3867188,7.97265625 C79.7402344,7.97265625 80.1777344,8.765625 80.1777344,10.4472656 L80.1777344,15.1777344 C79.4257812,14.4257812 78.359375,14.125 77.0878906,14.125 C73.4921875,14.125 70.8261719,16.6269531 70.8261719,21.6992188 C70.8261719,27.03125 73.2050781,29.3964844 76.5410156,29.3964844 C78.359375,29.3964844 79.5351562,28.5351562 80.1777344,26.921875 L80.1777344,29.2871094 C81.3535156,29.0136719 82.7070312,28.9042969 84.265625,28.9042969 C84.8261719,28.9042969 85.4140625,28.9316406 86.0019531,28.9863281 L86.0019531,28.3984375 C84.6484375,28.3984375 84.2109375,27.6054688 84.2109375,25.9375 L84.2109375,7.08398438 Z M77.703125,28.1796875 C76.0898438,28.1796875 75.0507813,26.5390625 75.0644531,21.7539062 C75.0507813,17.1328125 76.2128906,14.9316406 78.140625,14.9316406 C78.9335938,14.9316406 79.671875,15.21875 80.1777344,15.875 L80.1777344,25.828125 C79.9179688,27.3046875 78.8515625,28.1796875 77.703125,28.1796875 L77.703125,28.1796875 Z" id="shape" fill="#FFFFFF"></path>
            </g>
        </g>
    </g>
</svg>