<?xml version="1.0" encoding="UTF-8"?>
<svg width="27px" height="27px" viewBox="0 0 27 27" version="1.1" xmlns="http://www.w3.org/2000/svg" xmlns:xlink="http://www.w3.org/1999/xlink">
    <!-- Generator: Sketch 50.2 (55047) - http://www.bohemiancoding.com/sketch -->
    <title>search</title>
    <desc>Created with Sketch.</desc>
    <defs></defs>
    <g id="search" stroke="none" stroke-width="1" fill="none" fill-rule="evenodd">
        <path d="M21.4555908,19.5637013 L26.2883844,24.3907706 C26.6010777,24.7041794 26.6010777,25.2150789 26.2883844,25.5284877 L25.5248975,26.2912591 C25.2122041,26.604668 24.7005892,26.604668 24.3871803,26.2912591 L19.5572489,21.4613277 C19.3139634,21.2209045 19.2524265,20.8523986 19.40126,20.5447141 L15.5859719,16.729426 C15.2532433,16.4195949 15.2417946,15.893669 15.5659367,15.5723891 C15.8872165,15.2482471 16.4131424,15.2589802 16.7229736,15.5917088 L20.5382616,19.4069969 C20.8459461,19.258879 21.2123054,19.3232781 21.4555908,19.5637013 Z M4.01130963,15.5974332 C6.63306795,18.210605 10.6859171,18.7422552 13.8915604,16.8889926 L15.0657704,18.0624871 C10.8476303,20.7486445 5.28569597,19.8320309 2.15804706,15.933024 C-0.972464045,12.0340171 -0.664779525,6.40410598 2.87073027,2.86859619 C6.40624006,-0.664051425 12.0361512,-0.971735945 15.9322959,2.15591297 C19.8313028,5.28642407 20.7507786,10.8483584 18.0646212,15.0636363 L16.8911267,13.8894264 C18.4452913,11.1896736 18.3300885,7.84378331 16.5977531,5.25565562 C14.86184,2.66752793 11.8093233,1.28652532 8.72102941,1.69724838 C5.63488213,2.1058248 3.04675444,4.23242571 2.04642197,7.18118828 C1.04537397,10.132813 1.8088609,13.3949845 4.01130963,15.5974332 Z M6.62448141,5.26137999 C6.93789029,5.57407332 6.94003693,6.0828261 6.63020577,6.39909716 C5.52325705,7.50533034 5.033824,9.08525457 5.32218879,10.6222461 C5.61270022,12.1592376 6.64380113,13.4536592 8.0777541,14.0797614 C9.06162902,14.5126664 8.41334489,15.9888365 7.42946998,15.555216 C5.50894614,14.7144502 4.12579689,12.9813992 3.73725574,10.9213441 C3.34871459,8.86128887 4.00272308,6.74255895 5.48676423,5.26137999 C5.80017311,4.9479711 6.31178807,4.9479711 6.62448141,5.26137999 Z" id="shape" fill="#FFFFFF"></path>
    </g>
</svg>