<?xml version="1.0" encoding="UTF-8"?>
<svg width="20px" height="16px" viewBox="0 0 20 16" version="1.1" xmlns="http://www.w3.org/2000/svg" xmlns:xlink="http://www.w3.org/1999/xlink">
    <!-- Generator: Sketch 50.2 (55047) - http://www.bohemiancoding.com/sketch -->
    <title>Shape</title>
    <desc>Created with Sketch.</desc>
    <defs></defs>
    <g id="Symbols" stroke="none" stroke-width="1" fill="none" fill-rule="evenodd">
        <g id="footer" transform="translate(-729.000000, -169.000000)" fill="#606264">
            <path d="M748.6,170.8 C748,171.2 747.1,171.4 746.4,171.4 C747.3,170.9 747.9,170.2 748.1,169.2 C747.4,169.7 746.5,169.9 745.5,170.2 C744.8,169.5 743.8,169 742.5,169 C740.3,169 738.6,170.8 738.6,173.1 C738.6,173.5 738.6,173.7 738.7,174 C735.3,173.9 732.3,172.3 730.3,169.8 C729.9,170.4 729.8,171 729.8,171.8 C729.8,173.2 730.5,174.4 731.6,175.1 C731,175.1 730.4,174.9 729.8,174.6 L729.8,174.6 C729.8,176.6 731.2,178.2 733,178.5 C732.6,178.7 732.3,178.7 731.9,178.7 C731.7,178.7 731.4,178.7 731.2,178.6 C731.7,180.2 733.2,181.3 735,181.4 C733.6,182.5 731.9,183.1 730,183.1 L729,183.1 C730.7,184.2 732.9,184.9 735.2,184.9 C742.6,184.9 746.6,178.7 746.6,173.5 L746.6,173 C747.3,172.4 748.1,171.7 748.6,170.8 L748.6,170.8 L748.6,170.8 Z" id="Shape"></path>
        </g>
    </g>
</svg>